<svg xmlns="http://www.w3.org/2000/svg" width="50" height="50" viewBox="0 0 120 120">
  <!-- 白い角丸背景（余白小さめ） -->
  <rect x="0" y="0" width="120" height="120" fill="white" rx="15" ry="15"/>

  <!-- 緑の形：少しだけ縮小、中央配置 -->
  <g transform="translate(5,5) scale(0.22)">
    <path fill="#199332" d="M 250,0 C 112,0 0,112 0,250 0,250.03138 0,250.06234 0,250.09373 134.48692,254.07043 242.43364,364.4458 242.5,499.875 245,500 247.48626,500 250,500 252.51381,500 255,500 257.5,500 257.56636,364.44581 365.51307,254.07044 500,250.09373 500,250.06234 500,250.03138 500,250 500,112 388,0 250,0 z"/>
  </g>
</svg>
